<?xml version="1.0" encoding="UTF-8" standalone="no"?>
<!-- Created with Inkscape (http://www.inkscape.org/) -->

<svg
   xmlns:dc="http://purl.org/dc/elements/1.1/"
   xmlns:cc="http://creativecommons.org/ns#"
   xmlns:rdf="http://www.w3.org/1999/02/22-rdf-syntax-ns#"
   xmlns:svg="http://www.w3.org/2000/svg"
   xmlns="http://www.w3.org/2000/svg"
   xmlns:sodipodi="http://sodipodi.sourceforge.net/DTD/sodipodi-0.dtd"
   xmlns:inkscape="http://www.inkscape.org/namespaces/inkscape"
   width="210mm"
   height="297mm"
   viewBox="0 0 744.09448819 1052.3622047"
   id="svg2"
   version="1.1"
   inkscape:version="0.91 r13725"
   sodipodi:docname="background2.svg">
  <defs
     id="defs4" />
  <sodipodi:namedview
     id="base"
     pagecolor="#ffffff"
     bordercolor="#666666"
     borderopacity="1.0"
     inkscape:pageopacity="0.0"
     inkscape:pageshadow="2"
     inkscape:zoom="0.7"
     inkscape:cx="121.33328"
     inkscape:cy="426.51582"
     inkscape:document-units="px"
     inkscape:current-layer="layer1"
     showgrid="true"
     inkscape:window-width="1920"
     inkscape:window-height="1028"
     inkscape:window-x="-8"
     inkscape:window-y="-8"
     inkscape:window-maximized="1">
    <inkscape:grid
       type="xygrid"
       id="grid4140" />
  </sodipodi:namedview>
  <metadata
     id="metadata7">
    <rdf:RDF>
      <cc:Work
         rdf:about="">
        <dc:format>image/svg+xml</dc:format>
        <dc:type
           rdf:resource="http://purl.org/dc/dcmitype/StillImage" />
        <dc:title></dc:title>
      </cc:Work>
    </rdf:RDF>
  </metadata>
  <g
     inkscape:label="Layer 1"
     inkscape:groupmode="layer"
     id="layer1">
    <rect
       style="fill:#000b38;fill-opacity:1;fill-rule:evenodd;stroke:#000b38;stroke-width:0.9986921px;stroke-linecap:butt;stroke-linejoin:miter;stroke-opacity:1"
       id="rect3336"
       width="1049.0013"
       height="599.00128"
       x="0.49934605"
       y="452.86157" />
    <path
       sodipodi:type="spiral"
       style="fill:none;fill-rule:evenodd;stroke:#f2ff96;stroke-width:1px;stroke-linecap:butt;stroke-linejoin:miter;stroke-opacity:1"
       id="path4178"
       sodipodi:cx="551.42859"
       sodipodi:cy="759.50507"
       sodipodi:expansion="1"
       sodipodi:revolution="3"
       sodipodi:radius="44.721359"
       sodipodi:argument="-16.815111"
       sodipodi:t0="0"
       d="m 551.42859,759.50507 c -1.00277,2.00553 -3.19815,-0.36226 -3.33333,-1.66667 -0.36633,-3.53489 3.67305,-5.46923 6.66667,-5 5.35488,0.83935 7.93439,6.79427 6.66665,11.66667 -1.86046,7.15046 -9.95094,10.45362 -16.66667,8.33332 -8.951,-2.82602 -12.99473,-13.11932 -9.99998,-21.66667 3.76859,-10.75597 16.29305,-15.54694 26.66668,-11.66665 12.56384,4.69956 18.10551,19.46976 13.3333,31.66668 -5.62388,14.37365 -22.6483,20.6681 -36.66668,14.99997 -16.18477,-6.54408 -23.23335,-25.82807 -16.66663,-41.66668 7.46152,-17.99683 29.00872,-25.80047 46.66668,-18.33329 19.80957,8.37703 28.36894,32.18999 19.99996,51.66668 -9.29116,21.62282 -35.37175,30.93843 -56.66668,21.66662" />
    <path
       sodipodi:type="spiral"
       style="fill:none;fill-rule:evenodd;stroke:#f2ff96;stroke-width:1px;stroke-linecap:butt;stroke-linejoin:miter;stroke-opacity:1"
       id="path4188"
       sodipodi:cx="140"
       sodipodi:cy="592.36218"
       sodipodi:expansion="1"
       sodipodi:revolution="3"
       sodipodi:radius="56.568542"
       sodipodi:argument="-18.064157"
       sodipodi:t0="0"
       d="m 140,592.36218 c 2.00554,2.00554 -1.71396,3.69289 -3.33333,3.33334 -4.3884,-0.97437 -5.09386,-6.59535 -3.33333,-10.00001 3.14916,-6.09012 11.32687,-6.80357 16.66666,-3.33332 7.83637,5.09272 8.56398,16.12258 3.33333,23.33333 -6.97163,9.6108 -20.94108,10.34596 -30,3.33332 -11.39973,-8.82468 -12.13912,-25.77043 -3.33332,-36.66666 10.66499,-13.1968 30.6059,-13.93874 43.33333,-3.33332 14.99884,12.49811 15.74242,35.44518 3.33332,50 -14.3268,16.8041 -40.28702,17.54881 -56.66667,3.33331 -18.611596,-16.15254 -19.357096,-45.13063 -3.33331,-63.33333 17.97626,-20.42068 49.97555,-21.16676 70,-3.33331 22.23092,19.7985 22.97745,54.82146 3.33331,76.66666" />
    <path
       sodipodi:type="spiral"
       style="fill:none;fill-rule:evenodd;stroke:#f2ff96;stroke-width:1px;stroke-linecap:butt;stroke-linejoin:miter;stroke-opacity:1"
       id="path4190"
       sodipodi:cx="400"
       sodipodi:cy="592.36218"
       sodipodi:expansion="1"
       sodipodi:revolution="3.0423987"
       sodipodi:radius="158.4126"
       sodipodi:argument="-16.584021"
       sodipodi:t0="0"
       d="m 400,592.36218 c -5.01384,6.01661 -10.58392,-3.79018 -9.99999,-8.33334 1.5824,-12.31167 16.86375,-15.65693 26.66667,-11.66664 17.53512,7.13769 21.54154,29.44801 13.3333,45 -12.04593,22.82318 -42.19611,27.58155 -63.33334,14.99995 -28.17259,-16.76928 -33.68662,-55.00148 -16.6666,-81.66666 21.41796,-33.55542 67.83391,-39.82514 99.99999,-18.33326 38.95744,26.02954 45.98296,80.68155 19.99992,118.33333 -30.62012,44.37131 -93.53867,52.1529 -136.66666,21.66656 -49.79297,-35.19768 -58.33093,-106.4021 -23.33322,-154.99999 39.76662,-55.22001 119.26998,-64.51462 173.33332,-24.99987 60.6509,44.32957 70.70241,132.1411 26.66653,191.66665 -48.88818,66.08464 -145.01467,76.89328 -209.99999,28.33318 -11.20732,-8.37464 -21.27479,-18.25942 -29.87348,-29.29483" />
    <path
       sodipodi:type="spiral"
       style="fill:none;fill-rule:evenodd;stroke:#f2ff96;stroke-width:1px;stroke-linecap:butt;stroke-linejoin:miter;stroke-opacity:1"
       id="path4192"
       sodipodi:cx="120"
       sodipodi:cy="795.2193"
       sodipodi:expansion="1"
       sodipodi:revolution="3"
       sodipodi:radius="84.852814"
       sodipodi:argument="-18.064157"
       sodipodi:t0="0"
       d="m 120,795.2193 c 3.0083,3.0083 -2.57094,5.53932 -5,5 -6.5826,-1.46154 -7.64079,-9.89303 -5,-15 4.72375,-9.13519 16.99031,-10.20537 25,-5 11.75455,7.6391 12.84596,24.18388 4.99999,35 -10.45744,14.4162 -31.41161,15.51894 -44.999997,4.99999 -17.099597,-13.23702 -18.208672,-38.65565 -4.999985,-55 15.997492,-19.7952 45.908852,-20.9081 65.000002,-4.99998 22.49825,18.74717 23.61363,53.16778 4.99998,75 -21.4902,25.20616 -60.430529,26.32322 -85.000002,4.99998 -27.917398,-24.22882 -29.035647,-67.69596 -4.999974,-95 26.964392,-30.63102 74.963336,-31.75014 104.999996,-4.99998 33.34639,29.69776 34.46618,82.2322 4.99997,115.00001" />
    <path
       sodipodi:type="spiral"
       style="fill:none;fill-rule:evenodd;stroke:#f2ff96;stroke-width:1px;stroke-linecap:butt;stroke-linejoin:miter;stroke-opacity:1"
       id="path4194"
       sodipodi:cx="611.42859"
       sodipodi:cy="908.07642"
       sodipodi:expansion="1"
       sodipodi:revolution="3"
       sodipodi:radius="72.111023"
       sodipodi:argument="-16.295965"
       sodipodi:t0="0"
       d="m 611.42859,908.07642 c -3.00831,2.00553 -4.18761,-3.06568 -3.33333,-5.00001 2.31505,-5.2419 9.51765,-4.71848 13.33333,-1.66665 6.82536,5.45899 5.67275,15.85948 -10e-6,21.66666 -8.32501,8.52227 -22.29422,6.67431 -30,-1.66668 -10.27059,-11.11724 -7.69717,-28.76284 3.33336,-38.33333 13.88079,-12.04349 35.24782,-8.73127 46.66666,5.00003 13.82975,16.63044 9.77193,41.74206 -6.6667,54.99999 -19.37236,15.62401 -48.2421,10.81671 -63.33333,-8.33338 -17.42342,-22.10953 -11.86424,-54.74597 10.00005,-71.66665 24.84359,-19.22635 61.25257,-12.91369 79.99999,11.66672 21.03177,27.5755 13.96453,67.76114 -13.33339,88.33332 -30.30587,22.83902 -74.2712,15.01642 -96.66666,-15.00007" />
    <path
       sodipodi:type="spiral"
       style="fill:none;fill-rule:evenodd;stroke:#f2ff96;stroke-width:1px;stroke-linecap:butt;stroke-linejoin:miter;stroke-opacity:1"
       id="path4196"
       sodipodi:cx="880"
       sodipodi:cy="712.36218"
       sodipodi:expansion="1"
       sodipodi:revolution="3"
       sodipodi:radius="128.06248"
       sodipodi:argument="-16.604019"
       sodipodi:t0="0"
       d="m 880,712.36218 c -4.01107,5.01385 -8.73748,-2.93319 -8.33334,-6.66666 1.09521,-10.11748 13.56606,-13.11003 21.66666,-10.00001 14.49008,5.56309 18.13979,23.78455 11.66669,36.66666 -9.49954,18.90501 -34.1348,23.29961 -51.66666,13.33336 -23.36721,-13.28345 -28.51371,-44.53091 -15.00003,-66.66666 17.00558,-27.85558 54.94866,-33.75566 81.66665,-16.66671 32.35907,20.69701 39.01369,65.37857 18.33339,96.66666 -24.37102,36.87193 -75.81604,44.2818 -111.66666,20.00006 -41.39096,-28.03424 -49.55665,-86.25855 -21.66673,-126.66666 31.6903,-45.91426 96.70461,-54.8362 141.66665,-23.3334 50.44062,35.34138 60.11918,107.15326 25.00008,156.66665 -38.98886,54.96924 -117.60387,65.40472 -171.66665,26.66675" />
    <path
       sodipodi:type="spiral"
       style="fill:none;fill-rule:evenodd;stroke:#f2ff96;stroke-width:1px;stroke-linecap:butt;stroke-linejoin:miter;stroke-opacity:1"
       id="path4198"
       sodipodi:cx="668.57147"
       sodipodi:cy="630.93365"
       sodipodi:expansion="1"
       sodipodi:revolution="3"
       sodipodi:radius="56.568542"
       sodipodi:argument="-16.493361"
       sodipodi:t0="0"
       d="m 668.57147,630.93365 c -2.00554,2.00554 -3.69288,-1.71396 -3.33333,-3.33333 0.97437,-4.3884 6.59535,-5.09385 10,-3.33333 6.09013,3.14918 6.80358,11.32688 3.33332,16.66667 -5.09273,7.83637 -16.12258,8.56397 -23.33333,3.33332 -9.6108,-6.97164 -10.34595,-20.94109 -3.33331,-30.00001 8.82469,-11.39972 25.77044,-12.1391 36.66667,-3.3333 13.1968,10.665 13.93872,30.60592 3.33329,43.33334 -12.49812,14.99883 -35.44519,15.7424 -50,3.33329 -16.8041,-14.32681 -17.54878,-40.28703 -3.33328,-56.66667 16.15256,-18.61159 45.13065,-19.35707 63.33334,-3.33328 20.42066,17.97628 21.16672,49.97557 3.33327,70 -19.79852,22.23092 -54.82148,22.97742 -76.66667,3.33327" />
    <path
       sodipodi:type="spiral"
       style="fill:none;fill-rule:evenodd;stroke:#f2ff96;stroke-width:1px;stroke-linecap:butt;stroke-linejoin:miter;stroke-opacity:1"
       id="path4202"
       sodipodi:cx="814.28571"
       sodipodi:cy="935.2193"
       sodipodi:expansion="1"
       sodipodi:revolution="3"
       sodipodi:radius="89.442719"
       sodipodi:argument="-16.815111"
       sodipodi:t0="0"
       d="m 814.28571,935.2193 c -2.00554,4.01107 -6.39631,-0.72451 -6.66667,-3.33334 -0.73265,-7.06977 7.3461,-10.93845 13.33334,-9.99999 10.70977,1.6787 15.8688,13.58853 13.33332,23.33335 -3.72092,14.30091 -19.9019,20.90723 -33.33335,16.66663 -17.90201,-5.65205 -25.98946,-26.23865 -19.99996,-43.33334 7.53717,-21.51194 32.5861,-31.09387 53.33335,-23.33329 25.12769,9.3991 36.21103,38.9395 26.66661,63.33335 -11.24777,28.74731 -45.29659,41.3362 -73.33335,29.99994 -32.36956,-13.08816 -46.4667,-51.65615 -33.33327,-83.33336 14.92304,-35.99366 58.01743,-51.60093 93.33336,-36.66659 39.61914,16.75408 56.73789,64.37999 39.99992,103.33337 -18.58232,43.24567 -70.7435,61.87687 -113.33337,43.33327" />
    <path
       sodipodi:type="spiral"
       style="fill:none;fill-rule:evenodd;stroke:#f2ff96;stroke-width:1px;stroke-linecap:butt;stroke-linejoin:miter;stroke-opacity:1"
       id="path4208"
       sodipodi:cx="857.14288"
       sodipodi:cy="548.07648"
       sodipodi:expansion="1"
       sodipodi:revolution="3"
       sodipodi:radius="44.721359"
       sodipodi:argument="-16.815111"
       sodipodi:t0="0"
       d="m 857.14288,548.07648 c -1.00277,2.00553 -3.19815,-0.36226 -3.33333,-1.66667 -0.36632,-3.53489 3.67305,-5.46923 6.66667,-5 5.35489,0.83935 7.9344,6.79427 6.66666,11.66668 -1.86046,7.15045 -9.95095,10.45361 -16.66667,8.33331 -8.95101,-2.82602 -12.99474,-13.11932 -9.99999,-21.66667 3.76859,-10.75597 16.29306,-15.54693 26.66668,-11.66664 12.56385,4.69955 18.10552,19.46975 13.33331,31.66667 -5.62389,14.37366 -22.6483,20.6681 -36.66668,14.99997 -16.18478,-6.54408 -23.23335,-25.82807 -16.66663,-41.66668 7.46152,-17.99683 29.00871,-25.80046 46.66668,-18.33329 19.80957,8.37704 28.36894,32.18999 19.99995,51.66668 -9.29115,21.62282 -35.37175,30.93843 -56.66668,21.66662" />
    <path
       sodipodi:type="spiral"
       style="fill:none;fill-rule:evenodd;stroke:#f2ff96;stroke-width:1px;stroke-linecap:butt;stroke-linejoin:miter;stroke-opacity:1"
       id="path4210"
       sodipodi:cx="328.57144"
       sodipodi:cy="896.64789"
       sodipodi:expansion="1"
       sodipodi:revolution="3"
       sodipodi:radius="100"
       sodipodi:argument="-16.351465"
       sodipodi:t0="0"
       d="m 328.57144,896.64789 c -4.01107,3.00831 -6.03406,-3.92265 -5,-6.66666 2.80222,-7.43611 12.81531,-7.26543 18.33333,-3.33335 9.87043,7.03356 9.07456,21.52291 1.66669,30 -10.87136,12.44046 -30.3555,10.95634 -41.66667,3e-5 -15.07601,-14.60303 -12.8702,-39.23336 1.66662,-53.33333 18.29311,-17.74338 48.13302,-14.8009 65.00001,3.33327 20.42818,21.96292 16.74137,57.045 -4.99994,76.66668 -25.62138,23.12346 -65.96466,18.68801 -88.33334,-6.6666 -25.82552,-29.27289 -20.63875,-74.88946 8.33325,-100 32.91983,-28.5322 83.81786,-22.59236 111.66668,9.9999 31.24215,36.56359 24.54804,92.74889 -11.66657,123.33334 -40.20507,33.95453 -101.68189,26.50529 -135.00001,-13.33321" />
  </g>
</svg>
