<?xml version="1.0" encoding="UTF-8" standalone="no"?>
<!-- Created with Inkscape (http://www.inkscape.org/) -->

<svg
   xmlns:dc="http://purl.org/dc/elements/1.1/"
   xmlns:cc="http://creativecommons.org/ns#"
   xmlns:rdf="http://www.w3.org/1999/02/22-rdf-syntax-ns#"
   xmlns:svg="http://www.w3.org/2000/svg"
   xmlns="http://www.w3.org/2000/svg"
   xmlns:sodipodi="http://sodipodi.sourceforge.net/DTD/sodipodi-0.dtd"
   xmlns:inkscape="http://www.inkscape.org/namespaces/inkscape"
   width="210mm"
   height="297mm"
   viewBox="0 0 744.09448819 1052.3622047"
   id="svg2"
   version="1.1"
   inkscape:version="0.91 r13725"
   sodipodi:docname="background3.svg">
  <defs
     id="defs4" />
  <sodipodi:namedview
     id="base"
     pagecolor="#ffffff"
     bordercolor="#666666"
     borderopacity="1.0"
     inkscape:pageopacity="0.0"
     inkscape:pageshadow="2"
     inkscape:zoom="0.7"
     inkscape:cx="121.33328"
     inkscape:cy="426.51582"
     inkscape:document-units="px"
     inkscape:current-layer="layer1"
     showgrid="true"
     inkscape:window-width="1920"
     inkscape:window-height="1028"
     inkscape:window-x="-8"
     inkscape:window-y="-8"
     inkscape:window-maximized="1">
    <inkscape:grid
       type="xygrid"
       id="grid4140" />
  </sodipodi:namedview>
  <metadata
     id="metadata7">
    <rdf:RDF>
      <cc:Work
         rdf:about="">
        <dc:format>image/svg+xml</dc:format>
        <dc:type
           rdf:resource="http://purl.org/dc/dcmitype/StillImage" />
        <dc:title></dc:title>
      </cc:Work>
    </rdf:RDF>
  </metadata>
  <g
     inkscape:label="Layer 1"
     inkscape:groupmode="layer"
     id="layer1">
    <rect
       style="fill:#000b38;fill-opacity:1;fill-rule:evenodd;stroke:#000b38;stroke-width:0.9986921px;stroke-linecap:butt;stroke-linejoin:miter;stroke-opacity:1"
       id="rect3336"
       width="1049.0013"
       height="599.00128"
       x="-595.21497"
       y="198.57585" />
    <path
       sodipodi:type="spiral"
       style="fill:none;fill-rule:evenodd;stroke:#f2ff96;stroke-width:1px;stroke-linecap:butt;stroke-linejoin:miter;stroke-opacity:1"
       id="path4178"
       sodipodi:cx="-44.285698"
       sodipodi:cy="505.21936"
       sodipodi:expansion="1"
       sodipodi:revolution="3"
       sodipodi:radius="44.721359"
       sodipodi:argument="-16.815111"
       sodipodi:t0="0"
       d="m -44.285698,505.21936 c -1.00277,2.00554 -3.198153,-0.36225 -3.333332,-1.66667 -0.366326,-3.53489 3.673051,-5.46923 6.666671,-4.99999 5.354884,0.83934 7.934397,6.79426 6.666657,11.66667 -1.86046,7.15045 -9.950949,10.45362 -16.666674,8.33332 -8.951004,-2.82603 -12.994731,-13.11933 -9.999982,-21.66668 3.768587,-10.75596 16.293054,-15.54693 26.666677,-11.66664 12.563846,4.69955 18.105517,19.46975 13.333307,31.66668 -5.623886,14.37365 -22.648298,20.6681 -36.666679,14.99997 -16.184776,-6.54408 -23.233349,-25.82808 -16.666632,-41.66668 7.461521,-17.99684 29.008717,-25.80047 46.666681,-18.3333 19.8095678,8.37704 28.36894157,32.19 19.9999574,51.66668 -9.2911584,21.62282 -35.3717504,30.93844 -56.6666844,21.66662" />
    <path
       sodipodi:type="spiral"
       style="fill:none;fill-rule:evenodd;stroke:#f2ff96;stroke-width:1px;stroke-linecap:butt;stroke-linejoin:miter;stroke-opacity:1"
       id="path4188"
       sodipodi:cx="-455.71429"
       sodipodi:cy="338.07648"
       sodipodi:expansion="1"
       sodipodi:revolution="3"
       sodipodi:radius="56.568542"
       sodipodi:argument="-18.064157"
       sodipodi:t0="0"
       d="m -455.71429,338.07648 c 2.00553,2.00553 -1.71397,3.69288 -3.33334,3.33333 -4.38839,-0.97436 -5.09386,-6.59535 -3.33333,-10 3.14917,-6.09012 11.32687,-6.80358 16.66667,-3.33333 7.83636,5.09273 8.56397,16.12258 3.33333,23.33333 -6.97163,9.6108 -20.94108,10.34596 -30.00001,3.33333 -11.39973,-8.82469 -12.13911,-25.77043 -3.33332,-36.66667 10.66499,-13.1968 30.6059,-13.93874 43.33334,-3.33332 14.99883,12.49812 15.74242,35.44519 3.33331,50 -14.32679,16.80411 -40.28701,17.54881 -56.66666,3.33332 -18.6116,-16.15255 -19.3571,-45.13064 -3.33332,-63.33334 17.97626,-20.42067 49.97556,-21.16676 70,-3.33331 22.23093,19.7985 22.97745,54.82146 3.33331,76.66667" />
    <path
       sodipodi:type="spiral"
       style="fill:none;fill-rule:evenodd;stroke:#f2ff96;stroke-width:1px;stroke-linecap:butt;stroke-linejoin:miter;stroke-opacity:1"
       id="path4190"
       sodipodi:cx="-195.71428"
       sodipodi:cy="338.07648"
       sodipodi:expansion="1"
       sodipodi:revolution="3.0423987"
       sodipodi:radius="158.4126"
       sodipodi:argument="-16.584021"
       sodipodi:t0="0"
       d="m -195.71428,338.07648 c -5.01384,6.0166 -10.58392,-3.79018 -9.99999,-8.33334 1.5824,-12.31168 16.86375,-15.65694 26.66667,-11.66665 17.53512,7.13769 21.54154,29.44801 13.3333,45 -12.04592,22.82318 -42.19611,27.58155 -63.33334,14.99996 -28.17259,-16.76929 -33.68662,-55.00148 -16.6666,-81.66667 21.41796,-33.55542 67.83391,-39.82514 100,-18.33326 38.95743,26.02954 45.982956,80.68156 19.99991,118.33333 -30.62012,44.37131 -93.53867,52.1529 -136.66666,21.66657 -49.79297,-35.19768 -58.33093,-106.40211 -23.33322,-154.99999 39.76662,-55.22001 119.26998,-64.51462 173.33332,-24.99988 60.650897,44.32957 70.702412,132.14111 26.666529,191.66666 -48.888179,66.08464 -145.014669,76.89328 -209.999989,28.33318 -11.20732,-8.37464 -21.27479,-18.25943 -29.87348,-29.29484" />
    <path
       sodipodi:type="spiral"
       style="fill:none;fill-rule:evenodd;stroke:#f2ff96;stroke-width:1px;stroke-linecap:butt;stroke-linejoin:miter;stroke-opacity:1"
       id="path4192"
       sodipodi:cx="-475.71429"
       sodipodi:cy="540.93359"
       sodipodi:expansion="1"
       sodipodi:revolution="3"
       sodipodi:radius="84.852814"
       sodipodi:argument="-18.064157"
       sodipodi:t0="0"
       d="m -475.71429,540.93359 c 3.0083,3.00831 -2.57095,5.53933 -5.00001,5 -6.58259,-1.46154 -7.64078,-9.89302 -4.99999,-15 4.72375,-9.13518 16.99031,-10.20537 25,-4.99999 11.75455,7.63909 12.84596,24.18387 4.99999,35 -10.45744,14.4162 -31.41162,15.51894 -45,4.99999 -17.0996,-13.23703 -18.20867,-38.65565 -4.99999,-55 15.99749,-19.79521 45.90886,-20.90811 65.00001,-4.99999 22.49825,18.74718 23.61362,53.16779 4.99997,75 -21.49019,25.20617 -60.43052,26.32322 -85,4.99998 -27.91739,-24.22882 -29.03564,-67.69595 -4.99997,-95 26.96439,-30.63101 74.96334,-31.75014 105,-4.99997 33.34639,29.69776 34.46618,82.23219 4.99997,115" />
    <path
       sodipodi:type="spiral"
       style="fill:none;fill-rule:evenodd;stroke:#f2ff96;stroke-width:1px;stroke-linecap:butt;stroke-linejoin:miter;stroke-opacity:1"
       id="path4194"
       sodipodi:cx="15.714303"
       sodipodi:cy="653.79071"
       sodipodi:expansion="1"
       sodipodi:revolution="3"
       sodipodi:radius="72.111023"
       sodipodi:argument="-16.295965"
       sodipodi:t0="0"
       d="m 15.714303,653.79071 c -3.008306,2.00553 -4.187612,-3.06568 -3.33333,-5 2.315052,-5.24191 9.517653,-4.71848 13.333334,-1.66666 6.825359,5.45899 5.672747,15.85949 -1.4e-5,21.66667 -8.325007,8.52227 -22.2942231,6.67431 -29.9999983,-1.66669 -10.2705867,-11.11724 -7.6971677,-28.76284 3.33335916,-38.33333 13.88079214,-12.04349 35.24782114,-8.73127 46.66666114,5.00003 13.829747,16.63045 9.771929,41.74207 -6.666703,54.99999 -19.372359,15.62401 -48.242093,10.81671 -63.333326,-8.33337 -17.423425,-22.10953 -11.864237,-54.74598 10.000049,-71.66666 24.84359,-19.22635 61.252573,-12.91369 79.999989,11.66672 21.031768,27.57551 13.964532,67.76114 -13.333393,88.33332 -30.30587,22.83902 -74.271194,15.01642 -96.666653,-15.00006" />
    <path
       sodipodi:type="spiral"
       style="fill:none;fill-rule:evenodd;stroke:#f2ff96;stroke-width:1px;stroke-linecap:butt;stroke-linejoin:miter;stroke-opacity:1"
       id="path4196"
       sodipodi:cx="284.28571"
       sodipodi:cy="458.07648"
       sodipodi:expansion="1"
       sodipodi:revolution="3"
       sodipodi:radius="128.06248"
       sodipodi:argument="-16.604019"
       sodipodi:t0="0"
       d="m 284.28571,458.07648 c -4.01107,5.01384 -8.73749,-2.93319 -8.33334,-6.66667 1.0952,-10.11748 13.56606,-13.11002 21.66666,-10.00001 14.49007,5.56309 18.13979,23.78456 11.66669,36.66666 -9.49954,18.90502 -34.1348,23.29962 -51.66666,13.33336 -23.36722,-13.28344 -28.51372,-44.53091 -15.00004,-66.66665 17.00559,-27.85558 54.94867,-33.75566 81.66666,-16.66671 32.35907,20.697 39.01369,65.37856 18.33338,96.66665 -24.37102,36.87193 -75.81603,44.28181 -111.66665,20.00006 -41.39097,-28.03423 -49.55665,-86.25855 -21.66674,-126.66665 31.6903,-45.91426 96.70462,-54.83621 141.66666,-23.33341 50.44061,35.34138 60.11918,107.15327 25.00008,156.66665 -38.98886,54.96924 -117.60388,65.40473 -171.66665,26.66676" />
    <path
       sodipodi:type="spiral"
       style="fill:none;fill-rule:evenodd;stroke:#f2ff96;stroke-width:1px;stroke-linecap:butt;stroke-linejoin:miter;stroke-opacity:1"
       id="path4198"
       sodipodi:cx="72.857185"
       sodipodi:cy="376.64795"
       sodipodi:expansion="1"
       sodipodi:revolution="3"
       sodipodi:radius="56.568542"
       sodipodi:argument="-16.493361"
       sodipodi:t0="0"
       d="m 72.857185,376.64795 c -2.005538,2.00553 -3.692882,-1.71397 -3.33333,-3.33334 0.974364,-4.38839 6.595353,-5.09385 10.000003,-3.33332 6.090121,3.14917 6.80357,11.32687 3.333318,16.66667 -5.092734,7.83636 -16.122587,8.56396 -23.333336,3.33331 -9.610794,-6.97163 -10.345946,-20.94108 -3.333306,-30 8.824691,-11.39973 25.77044,-12.1391 36.66667,-3.3333 13.196796,10.665 13.938716,30.60591 3.333293,43.33333 -12.498124,14.99883 -35.445198,15.7424 -50.000003,3.33329 -16.804098,-14.32681 -17.548785,-40.28703 -3.333281,-56.66667 16.152559,-18.61159 45.130648,-19.35707 63.333337,-3.33327 20.42066,17.97627 21.16673,49.97557 3.33327,70 -19.79852,22.23091 -54.821478,22.97742 -76.666671,3.33326" />
    <path
       sodipodi:type="spiral"
       style="fill:none;fill-rule:evenodd;stroke:#f2ff96;stroke-width:1px;stroke-linecap:butt;stroke-linejoin:miter;stroke-opacity:1"
       id="path4202"
       sodipodi:cx="218.57143"
       sodipodi:cy="680.93359"
       sodipodi:expansion="1"
       sodipodi:revolution="3"
       sodipodi:radius="89.442719"
       sodipodi:argument="-16.815111"
       sodipodi:t0="0"
       d="m 218.57143,680.93359 c -2.00554,4.01107 -6.39631,-0.7245 -6.66667,-3.33334 -0.73265,-7.06977 7.3461,-10.93845 13.33334,-9.99998 10.70977,1.67869 15.8688,13.58852 13.33332,23.33334 -3.72092,14.30091 -19.9019,20.90724 -33.33335,16.66664 -17.90201,-5.65205 -25.98946,-26.23865 -19.99996,-43.33335 7.53717,-21.51193 32.5861,-31.09387 53.33335,-23.33329 25.12769,9.3991 36.21103,38.93951 26.66661,63.33336 -11.24777,28.7473 -45.29659,41.33619 -73.33335,29.99993 -32.36956,-13.08816 -46.4667,-51.65614 -33.33327,-83.33336 14.92304,-35.99366 58.01744,-51.60093 93.33336,-36.66658 39.61914,16.75407 56.73789,64.37998 39.99992,103.33336 -18.58232,43.24563 -70.7435,61.87687 -113.33337,43.33324" />
    <path
       sodipodi:type="spiral"
       style="fill:none;fill-rule:evenodd;stroke:#f2ff96;stroke-width:1px;stroke-linecap:butt;stroke-linejoin:miter;stroke-opacity:1"
       id="path4208"
       sodipodi:cx="261.42859"
       sodipodi:cy="293.79077"
       sodipodi:expansion="1"
       sodipodi:revolution="3"
       sodipodi:radius="44.721359"
       sodipodi:argument="-16.815111"
       sodipodi:t0="0"
       d="m 261.42859,293.79077 c -1.00277,2.00554 -3.19815,-0.36225 -3.33333,-1.66667 -0.36633,-3.53489 3.67305,-5.46923 6.66667,-4.99999 5.35488,0.83935 7.93439,6.79426 6.66665,11.66667 -1.86046,7.15045 -9.95094,10.45362 -16.66667,8.33332 -8.951,-2.82603 -12.99473,-13.11933 -9.99998,-21.66668 3.76859,-10.75596 16.29305,-15.54693 26.66668,-11.66664 12.56384,4.69955 18.10551,19.46975 13.3333,31.66668 -5.62388,14.37365 -22.6483,20.6681 -36.66668,14.99997 -16.18477,-6.54408 -23.23335,-25.82808 -16.66663,-41.66668 7.46152,-17.99683 29.00872,-25.80047 46.66668,-18.3333 19.80957,8.37704 28.36894,32.19 19.99996,51.66668 -9.29116,21.62282 -35.37175,30.93844 -56.66668,21.66662" />
    <path
       sodipodi:type="spiral"
       style="fill:none;fill-rule:evenodd;stroke:#f2ff96;stroke-width:1px;stroke-linecap:butt;stroke-linejoin:miter;stroke-opacity:1"
       id="path4210"
       sodipodi:cx="-267.14285"
       sodipodi:cy="642.36218"
       sodipodi:expansion="1"
       sodipodi:revolution="3"
       sodipodi:radius="100"
       sodipodi:argument="-16.351465"
       sodipodi:t0="0"
       d="m -267.14285,642.36218 c -4.01107,3.00831 -6.03406,-3.92265 -5.00001,-6.66666 2.80222,-7.43611 12.81532,-7.26543 18.33333,-3.33335 9.87043,7.03357 9.07457,21.52291 1.66669,30 -10.87135,12.44047 -30.3555,10.95634 -41.66666,4e-5 -15.07601,-14.60304 -12.87021,-39.23336 1.66662,-53.33334 18.29311,-17.74338 48.13302,-14.8009 65,3.33328 20.42818,21.96291 16.74138,57.045 -4.99993,76.66667 -25.62139,23.12346 -65.96467,18.68801 -88.33334,-6.66659 -25.82552,-29.2729 -20.63875,-74.88946 8.33325,-100.00001 32.91982,-28.5322 83.81786,-22.59236 111.66667,9.99991 31.24216,36.56359 24.54805,92.74889 -11.66656,123.33334 -40.20508,33.95454 -101.68189,26.50529 -135.00001,-13.33322" />
  </g>
</svg>
